<svg width="575" height="385" viewBox="0 0 575 385" fill="none" xmlns="http://www.w3.org/2000/svg">
<rect width="575" height="385" fill="#1B244A"/>
<rect x="193" y="272" width="43" height="43" rx="4" stroke="#9AABD8" stroke-width="2"/>
<path d="M206.951 297.1L206.986 294.885L207.953 293.707L209.236 294.938L209.219 297.258L207.971 298.453L206.951 297.1ZM209.922 292.02H212.242L213.473 293.197L212.471 294.445L209.834 294.375L208.727 293.25L209.922 292.02ZM206.969 291.896L206.898 289.33L207.971 287.871L209.113 289.049L209.166 291.65L208.006 292.793L206.969 291.896ZM203.945 292.248L205.967 292.195L207.268 293.268L206.213 294.41H203.857L202.785 293.373L203.945 292.248ZM221.752 290.842L221.84 288.574L222.824 287.379L224.09 288.627L224.143 291L223.105 292.178L221.752 290.842ZM217.252 285.85L221.014 285.814L222.314 286.904L221.26 288.029L217.146 288.012L216.004 286.992L217.252 285.85ZM217.727 291.316H221.26L222.49 292.494L221.488 293.725L217.621 293.672L216.531 292.564L217.727 291.316ZM222.086 296.889L222.068 294.182L223.035 293.004L224.318 294.234L224.354 296.607L223.316 297.908L222.086 296.889ZM217.428 297.838L221.523 297.785L222.807 298.875L221.752 300H217.322L216.268 298.98L217.428 297.838Z" fill="#9AABD8"/>
<path d="M150.951 297.1L150.986 294.885L151.953 293.707L153.236 294.938L153.219 297.258L151.971 298.453L150.951 297.1ZM153.922 292.02H156.242L157.473 293.197L156.471 294.445L153.834 294.375L152.727 293.25L153.922 292.02ZM150.969 291.896L150.898 289.33L151.971 287.871L153.113 289.049L153.166 291.65L152.006 292.793L150.969 291.896ZM147.945 292.248L149.967 292.195L151.268 293.268L150.213 294.41H147.857L146.785 293.373L147.945 292.248ZM165.805 285.85L167.053 286.992L165.893 288.012L161.797 288.029L160.742 286.904L162.043 285.814L165.805 285.85ZM165.33 291.316L166.525 292.564L165.418 293.672L161.885 293.725L160.883 292.494L162.113 291.316H165.33ZM168.301 291.193L167.246 292.09L166.104 290.947L166.139 288.662L167.264 287.467L168.354 288.926L168.301 291.193ZM160.971 296.889L159.723 297.908L158.703 296.607L158.738 294.234L160.021 293.004L160.988 294.182L160.971 296.889ZM165.629 297.838L166.877 298.98L165.717 300H161.287L160.232 298.875L161.533 297.785L165.629 297.838Z" fill="#9AABD8"/>
<rect x="137" y="272" width="43" height="43" rx="4" stroke="#9AABD8" stroke-width="2"/>
<path d="M96.9512 297.1L96.9863 294.885L97.9531 293.707L99.2363 294.938L99.2188 297.258L97.9707 298.453L96.9512 297.1ZM99.9219 292.02H102.242L103.473 293.197L102.471 294.445L99.834 294.375L98.7266 293.25L99.9219 292.02ZM96.9688 291.896L96.8984 289.33L97.9707 287.871L99.1133 289.049L99.166 291.65L98.0059 292.793L96.9688 291.896ZM93.9453 292.248L95.9668 292.195L97.2676 293.268L96.2129 294.41H93.8574L92.7852 293.373L93.9453 292.248ZM111.945 298.594V294.814L113.018 293.355L114.16 294.551L114.09 298.699L113.07 300L111.945 298.594ZM111.945 290.982V287.203L113.018 285.744L114.16 286.939L114.09 291.088L113.07 292.389L111.945 290.982Z" fill="#9AABD8"/>
<rect x="83" y="272" width="43" height="43" rx="4" stroke="#9AABD8" stroke-width="2"/>
<rect x="448" y="272" width="43" height="43" rx="4" stroke="#9AABD8" stroke-width="2"/>
<path d="M461.951 297.1L461.986 294.885L462.953 293.707L464.236 294.938L464.219 297.258L462.971 298.453L461.951 297.1ZM464.922 292.02H467.242L468.473 293.197L467.471 294.445L464.834 294.375L463.727 293.25L464.922 292.02ZM461.969 291.896L461.898 289.33L462.971 287.871L464.113 289.049L464.166 291.65L463.006 292.793L461.969 291.896ZM458.945 292.248L460.967 292.195L462.268 293.268L461.213 294.41H458.857L457.785 293.373L458.945 292.248ZM476.752 290.842L476.84 288.574L477.824 287.379L479.09 288.627L479.143 291L478.105 292.178L476.752 290.842ZM472.252 285.85L476.014 285.814L477.314 286.904L476.26 288.029L472.146 288.012L471.004 286.992L472.252 285.85ZM472.727 291.316H476.26L477.49 292.494L476.488 293.725L472.621 293.672L471.531 292.564L472.727 291.316ZM477.086 296.889L477.068 294.182L478.035 293.004L479.318 294.234L479.354 296.607L478.316 297.908L477.086 296.889ZM472.428 297.838L476.523 297.785L477.807 298.875L476.752 300H472.322L471.268 298.98L472.428 297.838Z" fill="#9AABD8"/>
<path d="M405.951 297.1L405.986 294.885L406.953 293.707L408.236 294.938L408.219 297.258L406.971 298.453L405.951 297.1ZM408.922 292.02H411.242L412.473 293.197L411.471 294.445L408.834 294.375L407.727 293.25L408.922 292.02ZM405.969 291.896L405.898 289.33L406.971 287.871L408.113 289.049L408.166 291.65L407.006 292.793L405.969 291.896ZM402.945 292.248L404.967 292.195L406.268 293.268L405.213 294.41H402.857L401.785 293.373L402.945 292.248ZM420.805 285.85L422.053 286.992L420.893 288.012L416.797 288.029L415.742 286.904L417.043 285.814L420.805 285.85ZM420.33 291.316L421.525 292.564L420.418 293.672L416.885 293.725L415.883 292.494L417.113 291.316H420.33ZM423.301 291.193L422.246 292.09L421.104 290.947L421.139 288.662L422.264 287.467L423.354 288.926L423.301 291.193ZM415.971 296.889L414.723 297.908L413.703 296.607L413.738 294.234L415.021 293.004L415.988 294.182L415.971 296.889ZM420.629 297.838L421.877 298.98L420.717 300H416.287L415.232 298.875L416.533 297.785L420.629 297.838Z" fill="#9AABD8"/>
<rect x="392" y="272" width="43" height="43" rx="4" stroke="#9AABD8" stroke-width="2"/>
<path d="M351.951 297.1L351.986 294.885L352.953 293.707L354.236 294.938L354.219 297.258L352.971 298.453L351.951 297.1ZM354.922 292.02H357.242L358.473 293.197L357.471 294.445L354.834 294.375L353.727 293.25L354.922 292.02ZM351.969 291.896L351.898 289.33L352.971 287.871L354.113 289.049L354.166 291.65L353.006 292.793L351.969 291.896ZM348.945 292.248L350.967 292.195L352.268 293.268L351.213 294.41H348.857L347.785 293.373L348.945 292.248ZM366.945 298.594V294.814L368.018 293.355L369.16 294.551L369.09 298.699L368.07 300L366.945 298.594ZM366.945 290.982V287.203L368.018 285.744L369.16 286.939L369.09 291.088L368.07 292.389L366.945 290.982Z" fill="#9AABD8"/>
<rect x="338" y="272" width="43" height="43" rx="4" stroke="#9AABD8" stroke-width="2"/>
<rect x="82" y="125" width="155" height="120" rx="5" fill="#080001"/>
<rect x="337" y="125" width="155" height="120" rx="5" fill="#080001"/>
<path d="M122.879 102H115.379V89.1875H104.305V102H96.8047V72.918H104.305V83.5625H115.379V72.918H122.879V102ZM158.602 87.4688C158.602 92.1042 157.273 95.7891 154.617 98.5234C151.961 101.245 148.289 102.605 143.602 102.605C138.927 102.605 135.262 101.245 132.605 98.5234C129.949 95.7891 128.621 92.1042 128.621 87.4688C128.621 82.7943 129.949 79.1029 132.605 76.3945C135.262 73.6732 138.927 72.3125 143.602 72.3125C148.263 72.3125 151.928 73.6732 154.598 76.3945C157.267 79.1029 158.602 82.7943 158.602 87.4688ZM148.66 94.832C149.389 93.9466 149.93 92.9049 150.281 91.707C150.633 90.4961 150.809 89.0768 150.809 87.4492C150.809 85.7044 150.607 84.2201 150.203 82.9961C149.799 81.7721 149.272 80.7826 148.621 80.0273C147.957 79.2461 147.189 78.6797 146.316 78.3281C145.457 77.9766 144.559 77.8008 143.621 77.8008C142.671 77.8008 141.772 77.9701 140.926 78.3086C140.092 78.6471 139.324 79.207 138.621 79.9883C137.97 80.7174 137.436 81.7266 137.02 83.0156C136.616 84.2917 136.414 85.776 136.414 87.4688C136.414 89.2005 136.609 90.6784 137 91.9023C137.404 93.1133 137.931 94.1029 138.582 94.8711C139.233 95.6393 139.995 96.2057 140.867 96.5703C141.74 96.9349 142.658 97.1172 143.621 97.1172C144.585 97.1172 145.503 96.9349 146.375 96.5703C147.247 96.1927 148.009 95.6133 148.66 94.832ZM194.832 102H187.371V82.5273L181.98 95.1641H176.805L171.414 82.5273V102H164.344V72.918H173.055L179.598 87.5078L186.121 72.918H194.832V102ZM223.309 102H202.273V72.918H223.309V78.543H209.734V83.5625H222.332V89.1875H209.734V96.375H223.309V102Z" fill="#EEEEEE"/>
<path d="M369.93 100.34C368.628 100.848 366.902 101.355 364.754 101.863C362.605 102.358 360.464 102.605 358.328 102.605C353.38 102.605 349.507 101.264 346.707 98.582C343.908 95.8867 342.508 92.1693 342.508 87.4297C342.508 82.9115 343.921 79.2721 346.746 76.5117C349.572 73.7383 353.51 72.3516 358.562 72.3516C360.477 72.3516 362.299 72.5273 364.031 72.8789C365.763 73.2174 367.69 73.901 369.812 74.9297V81.7461H368.973C368.608 81.4727 368.074 81.0885 367.371 80.5938C366.668 80.0859 365.991 79.6562 365.34 79.3047C364.585 78.888 363.699 78.5299 362.684 78.2305C361.681 77.931 360.613 77.7812 359.48 77.7812C358.152 77.7812 356.948 77.9766 355.867 78.3672C354.786 78.7578 353.816 79.3568 352.957 80.1641C352.137 80.9453 351.486 81.9414 351.004 83.1523C350.535 84.3503 350.301 85.737 350.301 87.3125C350.301 90.5286 351.154 92.9896 352.859 94.6953C354.565 96.401 357.085 97.2539 360.418 97.2539C360.704 97.2539 361.017 97.2474 361.355 97.2344C361.707 97.2214 362.026 97.2018 362.312 97.1758V91.4727H356.512V85.9844H369.93V100.34ZM402.137 91.4727C402.137 95.0664 401.043 97.8203 398.855 99.7344C396.668 101.648 393.445 102.605 389.188 102.605C384.93 102.605 381.707 101.648 379.52 99.7344C377.345 97.8203 376.258 95.0729 376.258 91.4922V72.918H383.797V91.0625C383.797 93.0807 384.22 94.5846 385.066 95.5742C385.913 96.5638 387.286 97.0586 389.188 97.0586C391.062 97.0586 392.43 96.5833 393.289 95.6328C394.161 94.6823 394.598 93.1589 394.598 91.0625V72.918H402.137V91.4727ZM430.203 102H409.168V72.918H430.203V78.543H416.629V83.5625H429.227V89.1875H416.629V96.375H430.203V102ZM459.793 92.8594C459.793 95.724 458.576 98.0547 456.141 99.8516C453.719 101.635 450.424 102.527 446.258 102.527C443.849 102.527 441.746 102.319 439.949 101.902C438.165 101.473 436.492 100.932 434.93 100.281V93.3086H435.75C437.299 94.5456 439.031 95.4961 440.945 96.1602C442.872 96.8242 444.721 97.1562 446.492 97.1562C446.948 97.1562 447.547 97.1172 448.289 97.0391C449.031 96.9609 449.637 96.8307 450.105 96.6484C450.678 96.4141 451.147 96.1211 451.512 95.7695C451.889 95.418 452.078 94.8971 452.078 94.207C452.078 93.569 451.805 93.0221 451.258 92.5664C450.724 92.0977 449.936 91.7396 448.895 91.4922C447.801 91.2318 446.642 90.9909 445.418 90.7695C444.207 90.5352 443.068 90.2422 442 89.8906C439.552 89.0964 437.788 88.0221 436.707 86.668C435.639 85.3008 435.105 83.6081 435.105 81.5898C435.105 78.8815 436.316 76.6745 438.738 74.9688C441.173 73.25 444.298 72.3906 448.113 72.3906C450.027 72.3906 451.915 72.5794 453.777 72.957C455.652 73.3216 457.273 73.7839 458.641 74.3438V81.043H457.84C456.668 80.1055 455.229 79.3242 453.523 78.6992C451.831 78.0612 450.099 77.7422 448.328 77.7422C447.703 77.7422 447.078 77.7878 446.453 77.8789C445.841 77.957 445.249 78.1133 444.676 78.3477C444.168 78.543 443.732 78.8424 443.367 79.2461C443.003 79.6367 442.82 80.0859 442.82 80.5938C442.82 81.362 443.113 81.9544 443.699 82.3711C444.285 82.7747 445.392 83.1458 447.02 83.4844C448.087 83.7057 449.109 83.9206 450.086 84.1289C451.076 84.3372 452.137 84.6237 453.27 84.9883C455.496 85.7174 457.137 86.7135 458.191 87.9766C459.259 89.2266 459.793 90.8542 459.793 92.8594ZM487.703 78.543H478.621V102H471.121V78.543H462.039V72.918H487.703V78.543Z" fill="#EEEEEE"/>
<path d="M169.135 174.209L169.574 162.871L174.496 156.895L180.824 163.135L181.088 175L175.902 180.889L169.135 174.209ZM134.33 204.443L134.242 190.908L139.076 185.02L145.492 191.172L145.668 205.234L139.428 211.211L134.33 204.443ZM146.635 149.248L165.443 149.072L171.947 154.521L166.674 160.146L146.107 160.059L140.395 154.961L146.635 149.248ZM134.154 175.967L133.891 164.629L139.252 157.334L144.965 163.311L145.141 174.736L139.34 180.449L134.154 175.967ZM170.805 204.443L170.717 190.908L175.551 185.02L181.967 191.172L182.143 203.037L176.957 209.541L170.805 204.443ZM147.514 209.189L167.992 208.926L174.408 214.375L169.135 220H146.986L141.713 214.902L147.514 209.189Z" fill="#F94F6D"/>
<path d="M424.135 174.209L424.574 162.871L429.496 156.895L435.824 163.135L436.088 175L430.902 180.889L424.135 174.209ZM389.33 204.443L389.242 190.908L394.076 185.02L400.492 191.172L400.668 205.234L394.428 211.211L389.33 204.443ZM401.635 149.248L420.443 149.072L426.947 154.521L421.674 160.146L401.107 160.059L395.395 154.961L401.635 149.248ZM389.154 175.967L388.891 164.629L394.252 157.334L399.965 163.311L400.141 174.736L394.34 180.449L389.154 175.967ZM425.805 204.443L425.717 190.908L430.551 185.02L436.967 191.172L437.143 203.037L431.957 209.541L425.805 204.443ZM402.514 209.189L422.992 208.926L429.408 214.375L424.135 220H401.986L396.713 214.902L402.514 209.189Z" fill="#F94F6D"/>
</svg>
